<svg width="84" height="84" viewBox="0 0 84 84" fill="none" xmlns="http://www.w3.org/2000/svg">
<path d="M59.5008 83.9992C53.0468 83.9187 48.6508 80.4537 42.0008 80.4992C35.3508 80.4537 30.9513 83.9187 24.5008 83.9992C22.6185 84.1746 20.7207 83.9328 18.9425 83.2913C17.1643 82.6497 15.5494 81.6241 14.2127 80.2873C12.876 78.9506 11.8503 77.3357 11.2087 75.5575C10.5672 73.7793 10.3254 71.8815 10.5008 69.9992C10.8094 61.7434 14.2272 53.9093 20.069 48.0675C25.9108 42.2256 33.7449 38.8078 42.0008 38.4992C50.2566 38.8078 58.0907 42.2256 63.9325 48.0675C69.7744 53.9093 73.1922 61.7434 73.5008 69.9992C73.6761 71.8815 73.4344 73.7793 72.7928 75.5575C72.1512 77.3357 71.1256 78.9506 69.7889 80.2873C68.4522 81.6241 66.8372 82.6497 65.059 83.2913C63.2808 83.9328 61.383 84.1746 59.5008 83.9992ZM42.0008 69.9992C46.2157 70.0846 50.3882 70.8602 54.3523 72.2952C58.0133 73.3907 63.4733 75.3507 63.0008 69.9992C62.6637 64.54 60.343 59.3922 56.4754 55.5246C52.6078 51.657 47.46 49.3363 42.0008 48.9992C36.5415 49.3363 31.3937 51.657 27.5261 55.5246C23.6585 59.3922 21.3378 64.54 21.0008 69.9992C20.5178 75.3542 25.9988 73.3872 29.6493 72.2952C33.6133 70.8602 37.7858 70.0846 42.0008 69.9992ZM76.4548 17.5482C71.6808 16.9777 67.3548 21.4962 66.6058 29.6582C65.0903 48.9362 81.6803 51.4457 83.8993 31.7197C84.6448 23.5612 81.2288 18.1187 76.4548 17.5482ZM0.102275 31.7197C2.32477 51.4492 18.9008 48.9222 17.3958 29.6582C16.6468 21.4962 12.3208 16.9777 7.54677 17.5482C2.77277 18.1187 -0.643225 23.5612 0.102275 31.7197ZM20.9203 14.2197C23.1428 33.9562 39.7293 31.4222 38.2103 12.1582C37.4508 3.99622 33.1388 -0.522276 28.3508 0.0482244C23.5628 0.618724 20.1713 6.06122 20.9203 14.2197ZM55.5703 0.0482244C50.7963 -0.522276 46.4703 3.99622 45.7248 12.1582C44.2093 31.4362 60.7993 33.9457 63.0148 14.2197C63.7778 6.06122 60.3653 0.618724 55.5878 0.0482244H55.5703Z" fill="#733D29"/>
</svg>
